<svg xmlns="http://www.w3.org/2000/svg" viewBox="0 0 64 64" role="img" aria-label="GitHub Lookup">
  <rect width="64" height="64" rx="16" fill="#14110f"/>
  <path fill="#c45c26" d="M32 14c-9.4 0-17 7.6-17 17 0 7.5 4.9 13.9 11.6 16.1.8.2 1.1-.4 1.1-.8v-2.8c-4.7 1-5.7-2.3-5.7-2.3-.8-2-1.9-2.5-1.9-2.5-1.5-1 .1-1 .1-1 1.7.1 2.6 1.8 2.6 1.8 1.5 2.6 4 1.8 5 1.4.2-1.1.6-1.8 1.1-2.3-3.8-.4-7.7-1.9-7.7-8.4 0-1.9.7-3.4 1.8-4.6-.2-.4-.8-2.2.2-4.5 0 0 1.4-.5 4.7 1.8a16.3 16.3 0 0 1 8.6 0c3.2-2.2 4.7-1.8 4.7-1.8 1 2.3.4 4.1.2 4.5 1.1 1.2 1.8 2.7 1.8 4.6 0 6.5-4 8-7.8 8.4.6.5 1.2 1.6 1.2 3.2v4.7c0 .4.3 1 1.1.8C44.1 44.9 49 38.5 49 31c0-9.4-7.6-17-17-17z"/>
</svg>
